<svg width="32" height="20" viewBox="0 0 32 20" fill="none" xmlns="http://www.w3.org/2000/svg">
<path d="M1.77778 20H30.2222C31.2 20 32 19.25 32 18.3333C32 17.4167 31.2 16.6667 30.2222 16.6667H1.77778C0.8 16.6667 0 17.4167 0 18.3333C0 19.25 0.8 20 1.77778 20ZM1.77778 11.6667H30.2222C31.2 11.6667 32 10.9167 32 10C32 9.08333 31.2 8.33333 30.2222 8.33333H1.77778C0.8 8.33333 0 9.08333 0 10C0 10.9167 0.8 11.6667 1.77778 11.6667ZM0 1.66667C0 2.58333 0.8 3.33333 1.77778 3.33333H30.2222C31.2 3.33333 32 2.58333 32 1.66667C32 0.75 31.2 0 30.2222 0H1.77778C0.8 0 0 0.75 0 1.66667Z" fill="white"/>
</svg>
