<svg width="59" height="20" viewBox="0 0 59 20" fill="none" xmlns="http://www.w3.org/2000/svg">
<g filter="url(#filter0_d_418_188)">
<path d="M2 15.4367V2.20546H4.55604V15.4367H2Z" fill="white"/>
<path d="M5.56342 15.4367V4.16008H8.25478V5.59597C8.35502 5.16495 8.54046 4.79909 8.8111 4.49838C9.08675 4.19266 9.46765 4.03979 9.9538 4.03979C10.7356 4.03979 11.302 4.28036 11.6528 4.7615C12.0087 5.24264 12.1866 5.9017 12.1866 6.73867V15.4367H9.5328V7.01683C9.5328 6.79631 9.4877 6.59333 9.39748 6.40789C9.30727 6.21744 9.1519 6.12222 8.93138 6.12222C8.7259 6.12222 8.57304 6.19489 8.4728 6.34023C8.37757 6.48056 8.31743 6.65848 8.29237 6.87399C8.26731 7.08449 8.25478 7.29499 8.25478 7.50549V15.4367H5.56342Z" fill="white"/>
<path d="M16.6371 15.557C15.3741 15.557 14.477 15.2338 13.9457 14.5872C13.4195 13.9407 13.1564 12.991 13.1564 11.738V8.26478C13.1564 7.32255 13.2566 6.5382 13.4571 5.91172C13.6576 5.28524 14.0084 4.81663 14.5096 4.5059C15.0108 4.19516 15.7074 4.03979 16.5995 4.03979C17.221 4.03979 17.7773 4.15006 18.2685 4.37058C18.7646 4.5911 19.1555 4.91436 19.4412 5.34037C19.7269 5.76638 19.8697 6.28761 19.8697 6.90406V8.62563H17.1258V7.0469C17.1258 6.78629 17.0882 6.56827 17.013 6.39286C16.9378 6.21243 16.7749 6.12222 16.5243 6.12222C16.0833 6.12222 15.8628 6.43546 15.8628 7.06194V12.5274C15.8628 12.7579 15.9129 12.9709 16.0131 13.1664C16.1134 13.3568 16.2787 13.452 16.5093 13.452C16.7449 13.452 16.9077 13.3593 16.9979 13.1739C17.0932 12.9834 17.1408 12.7629 17.1408 12.5123V10.6178H19.8697V12.5875C19.8697 13.209 19.7294 13.7427 19.4487 14.1888C19.1731 14.6298 18.7922 14.9681 18.306 15.2037C17.8199 15.4392 17.2636 15.557 16.6371 15.557Z" fill="white"/>
<path d="M20.8095 15.4367V2.20546H23.5459V15.4367H20.8095Z" fill="white"/>
<path d="M26.8011 15.557C26.1997 15.557 25.7386 15.4317 25.4179 15.1811C25.1021 14.9305 24.8866 14.5822 24.7713 14.1362C24.656 13.6851 24.5984 13.1588 24.5984 12.5574V4.16008H27.3048V12.2417C27.3048 12.6927 27.3399 13.0085 27.4101 13.1889C27.4802 13.3643 27.6456 13.452 27.9062 13.452C28.1869 13.452 28.3623 13.3267 28.4325 13.0762C28.5077 12.8256 28.5452 12.5023 28.5452 12.1064V4.16008H31.2291V15.4367H28.5377V14.2339C28.3673 14.6649 28.1618 14.9932 27.9213 15.2187C27.6857 15.4443 27.3123 15.557 26.8011 15.557Z" fill="white"/>
<path d="M35.4014 15.557C33.1762 15.557 32.0636 14.4294 32.0636 12.174V11.2794H34.77V12.6025C34.77 12.8581 34.8201 13.0586 34.9203 13.204C35.0205 13.3493 35.1809 13.422 35.4014 13.422C35.7924 13.422 35.9878 13.1288 35.9878 12.5424C35.9878 12.0512 35.8851 11.6854 35.6796 11.4448C35.4741 11.1992 35.2235 10.9637 34.9278 10.7381L33.4919 9.63302C33.0409 9.28219 32.6976 8.91131 32.462 8.52039C32.2264 8.12946 32.1087 7.58568 32.1087 6.88903C32.1087 6.2425 32.2615 5.70874 32.5672 5.28774C32.878 4.86675 33.2864 4.55351 33.7926 4.34802C34.3039 4.14254 34.8552 4.03979 35.4466 4.03979C37.6317 4.03979 38.7243 5.12987 38.7243 7.31002V7.52052H35.9427V7.09201C35.9427 6.86648 35.9026 6.64846 35.8224 6.43796C35.7473 6.22747 35.5969 6.12222 35.3714 6.12222C34.9905 6.12222 34.8 6.32269 34.8 6.72364C34.8 7.1296 34.9604 7.44785 35.2812 7.6784L36.9501 8.89627C37.4713 9.27216 37.9074 9.71822 38.2582 10.2344C38.614 10.7507 38.792 11.4373 38.792 12.2943C38.792 13.3568 38.4887 14.1662 37.8823 14.7225C37.2809 15.2789 36.4539 15.557 35.4014 15.557Z" fill="white"/>
<path d="M39.6039 3.46844V1.22815H42.2952V3.46844H39.6039ZM39.6039 15.4367V4.16008H42.2952V15.4367H39.6039Z" fill="white"/>
<path d="M44.7987 15.4367L42.9869 4.16008H45.6858L46.3323 11.6929L47.0615 4.16008H49.7529L47.911 15.4367H44.7987Z" fill="white"/>
<path d="M53.617 15.557C52.8151 15.557 52.1761 15.4067 51.7 15.106C51.2238 14.8052 50.883 14.3717 50.6776 13.8054C50.4721 13.239 50.3693 12.5574 50.3693 11.7605V7.22733C50.3693 6.17985 50.67 5.38798 51.2715 4.85171C51.8729 4.31043 52.6998 4.03979 53.7523 4.03979C55.9174 4.03979 57 5.10231 57 7.22733V8.04677C57 9.03911 56.99 9.70569 56.9699 10.0465H53.0607V12.2266C53.0607 12.4271 53.0732 12.6251 53.0983 12.8205C53.1233 13.011 53.1785 13.1689 53.2637 13.2942C53.3539 13.4195 53.4967 13.4821 53.6922 13.4821C53.9728 13.4821 54.1483 13.3618 54.2184 13.1213C54.2886 12.8757 54.3237 12.5574 54.3237 12.1665V11.0839H57V11.723C57 12.5649 56.8948 13.2716 56.6843 13.843C56.4788 14.4093 56.1279 14.8378 55.6318 15.1285C55.1406 15.4142 54.469 15.557 53.617 15.557ZM53.0457 8.70833H54.3237V7.18974C54.3237 6.78378 54.2736 6.49309 54.1733 6.31768C54.0731 6.13725 53.9227 6.04704 53.7223 6.04704C53.5067 6.04704 53.3388 6.13224 53.2186 6.30264C53.1033 6.47305 53.0457 6.76874 53.0457 7.18974V8.70833Z" fill="white"/>
</g>
<defs>
<filter id="filter0_d_418_188" x="0" y="0.728149" width="59" height="18.3289" filterUnits="userSpaceOnUse" color-interpolation-filters="sRGB">
<feFlood flood-opacity="0" result="BackgroundImageFix"/>
<feColorMatrix in="SourceAlpha" type="matrix" values="0 0 0 0 0 0 0 0 0 0 0 0 0 0 0 0 0 0 127 0" result="hardAlpha"/>
<feOffset dy="1.5"/>
<feGaussianBlur stdDeviation="1"/>
<feComposite in2="hardAlpha" operator="out"/>
<feColorMatrix type="matrix" values="0 0 0 0 0 0 0 0 0 0 0 0 0 0 0 0 0 0 0.2 0"/>
<feBlend mode="normal" in2="BackgroundImageFix" result="effect1_dropShadow_418_188"/>
<feBlend mode="normal" in="SourceGraphic" in2="effect1_dropShadow_418_188" result="shape"/>
</filter>
</defs>
</svg>
