<svg width="9" height="12" viewBox="0 0 9 12" fill="none" xmlns="http://www.w3.org/2000/svg">
<path d="M6.26965 6.55461C6.09314 6.32619 5.82319 6.18084 5.52209 6.18084H3.26902C3.15481 6.18084 3.06137 6.08739 3.07175 5.97318L3.17558 3.65781L3.95429 4.49882C4.08927 4.64418 4.28654 4.73762 4.48381 4.73762C4.4942 4.73762 4.49419 4.73762 4.50458 4.73762L6.97568 4.68571C7.31832 4.67533 7.6298 4.43653 7.6921 4.09389C7.77516 3.62667 7.41176 3.22174 6.9653 3.23212L4.80568 3.27365L3.06137 1.38398C2.85371 0.937523 2.38649 0.636423 1.85696 0.677954C1.19246 0.719485 0.694092 1.30092 0.694092 1.96542V6.77265C0.694092 7.05299 0.787537 7.31256 0.953662 7.5306C1.1094 7.84208 1.42089 8.06012 1.79467 8.06012H5.07563L7.00683 10.7181C7.19372 10.9569 7.47406 11.0919 7.75439 11.0919C7.95167 11.0919 8.14894 11.0296 8.31506 10.905C8.73038 10.5935 8.80306 10.0121 8.49157 9.59678L6.26965 6.55461Z" fill="#1364E2"/>
</svg>
