<svg width="31" height="30" viewBox="0 0 31 30" fill="none" xmlns="http://www.w3.org/2000/svg">
<path d="M0.75531 9.93758C2.91942 12.6614 5.81112 15.2639 9.53301 17.8571C9.99942 18.1836 10.6337 18.65 11.408 19.1724C12.9937 20.3477 13.5814 20.3477 15.1672 19.1724C15.5869 18.8925 16.0253 18.5847 16.3798 18.3328V18.7619C16.3705 19.3123 16.7902 19.7694 17.3313 19.816C17.6111 19.8347 17.891 19.732 18.0962 19.5455C18.3014 19.3496 18.4227 19.0791 18.4227 18.7992V16.3553C18.4227 16.0101 18.4506 15.6743 18.5159 15.3292V15.3105C19.4394 10.376 23.8889 9.15403 23.9355 9.1447C24.3833 9.02343 24.7004 8.62232 24.7004 8.15592V4.69521C24.6911 3.5292 25.1389 2.40984 25.9504 1.57964C26.7526 0.758771 27.8533 0.301697 29.0007 0.292369C29.3738 0.283041 29.7376 0.42296 29.9988 0.684146C30.26 0.945332 30.4185 1.30913 30.4092 1.68225V9.86296C30.4185 11.7006 29.663 13.4636 28.3291 14.7322C27.191 15.8049 26.2396 17.0549 25.5213 18.4354C24.4486 20.5249 23.3479 24.4241 23.0121 28.0993C22.9468 28.743 22.4057 29.228 21.7621 29.228H5.20479C4.86898 29.228 4.55183 29.0974 4.31863 28.8642C4.08543 28.631 3.95483 28.3139 3.95483 27.9781V24.2935C3.95483 22.2693 3.59104 20.2544 2.87278 18.3608L1.7161 15.2919C1.10045 13.6595 0.773965 11.9245 0.764637 10.1801L0.75531 9.93758Z" fill="white"/>
</svg>
