<svg width="30" height="27" viewBox="0 0 30 27" fill="none" xmlns="http://www.w3.org/2000/svg">
<path d="M0.619271 9.29242C0.274133 4.67503 3.06322 1.69938 5.79634 0.887835C6.53326 0.663962 7.30749 0.589337 8.08172 0.654634C8.85595 0.729258 9.60219 0.953131 10.2925 1.32625C12.0182 2.25906 13.353 3.47047 14.238 5.04396C14.7516 5.74329 15.6841 5.74329 16.1503 5.04396C17.1993 3.47047 18.5758 2.25906 20.3015 1.32625C20.6746 1.13036 21.057 0.971787 21.4582 0.859851C22.5495 0.552025 23.7062 0.561354 24.7883 0.897164C25.6091 1.13969 26.374 1.5408 27.0457 2.06317C28.5848 3.27582 29.6202 5.21605 29.9094 7.36151C28.4355 7.62269 27.111 8.39692 26.1502 9.54427C25.1801 10.6823 24.6577 12.1281 24.6577 13.6206V16.4284C23.0533 17.072 19.4246 19.0496 18.5105 23.9375C18.5105 23.9468 18.5105 23.9468 18.5105 23.9561C18.4545 24.236 18.4265 24.5251 18.4079 24.805C18.2493 24.9169 18.0814 25.0382 17.8762 25.1781C16.6542 26.0643 15.4882 26.8478 15.2923 26.9504C15.0871 26.8385 13.9397 26.0736 12.7084 25.1781C8.30559 22.1092 5.13405 19.0496 3.02591 15.8127C1.67334 13.7885 0.759192 11.4006 0.619271 9.29242Z" fill="white"/>
</svg>
