<svg width="10" height="10" viewBox="0 0 10 10" fill="none" xmlns="http://www.w3.org/2000/svg">
<path d="M8.8233 6.29236C8.62603 6.17815 8.37684 6.24045 8.25225 6.43772C7.5566 7.61098 6.26913 8.33777 4.90899 8.33777C2.75975 8.33777 1.01544 6.59346 1.01544 4.44422C1.01544 3.12561 1.66955 1.91082 2.78051 1.18402C2.9674 1.05943 3.0297 0.799861 2.89472 0.612971C2.77013 0.42608 2.51056 0.363783 2.32367 0.498759C0.984289 1.37091 0.184814 2.85566 0.184814 4.45461C0.184814 7.06069 2.3029 9.17878 4.90899 9.17878C6.55985 9.17878 8.11727 8.29624 8.96866 6.8738C9.08287 6.66614 9.02057 6.40657 8.8233 6.29236Z" fill="#1364E2"/>
</svg>
